<svg data-name="Layer 1" xmlns="http://www.w3.org/2000/svg" viewBox="0 0 595.61 101.38"><path d="M53.15 65H0L16.17 0h53.14L65.6 15.06H32.43l-2.51 10h24.16L50.55 39H26.39l-2.7 11h33.17zm13.68-2.58c-2.83-2.78-3.55-6.94-1.32-17.82s4.74-15 8.7-17.81c2.76-2 5.47-2.63 11-2.63h19.89c5.48 0 7.88.66 9.86 2.63 2.91 2.78 3.56 6.94 1.33 17.81s-4.65 15-8.71 17.82c-2.75 2-5.38 2.62-10.86 2.62H76.79c-5.48-.04-7.88-.65-9.96-2.62zm16.39-8.91c.44.58 1.19.66 3.14.66h5.2c2 0 2.68-.15 3.37-.66s1.29-1.75 2.72-8.91 1.4-8.39 1-8.9-1.22-.7-3.17-.7h-5.21c-2 0-2.68.07-3.36.66s-1.29 1.75-2.82 8.9-1.3 8.44-.87 8.95zm88.96 8.37c-2.42 2-5.76 3.16-11 3.16h-26.82c-5.85 0-9.1-.74-10.78-3.06-2-2.7-2.13-7.44.66-18.86h18.3c-1 4.83-.93 6.13-.56 6.59s1.49.75 4.18.75h9.39c2.69 0 4.27-.19 4.83-.65.74-.56 1.3-1.86 2-4.19.46-1.85.46-3.16.09-3.71s-2-.84-4.55-1.12l-18.68-2.23c-4-.46-6.41-1.48-8-3.53-1.85-2.51-2.6-6.41-.37-15.42C133 11.34 136.31 6.14 140 3.16 142.45 1.21 145.88 0 150.81 0h25c6 0 9.29.93 10.78 3 2.14 2.78 2.6 6.87-.19 18.11h-18.3c.84-4.08.84-5.2.46-5.76s-1.3-.74-3.71-.74h-9.29c-2.23 0-3.35.09-3.81.47-.65.46-1.21 1.67-1.77 3.8s-.46 3.16-.09 3.72 1.58.65 4.64 1l18.87 2.23c4.27.56 6.31 1.58 7.8 3.53 1.95 2.51 2.51 6.6.28 15.34-2.24 8.91-5.58 14.21-9.3 17.18zM79.27 0h44.87l-3.75 15.06H75.51zm138.44 11.89h31.41L252.09 0h-46.55l-16.17 65.05h15.14l6.32-25.46h23.51l2.79-11.43h-23.51l4.09-16.27zm27.5 53.16h15.23L276.61 0h-15.24l-16.16 65.05zM339.89 0h-54.92L282 12.08h19.79l-13.2 52.97h15.15l13.19-52.97h19.98L339.89 0zm50.26 0l-10.22 41H379L367.85 3.9c-.93-3.06-2.23-3.9-5.76-3.9h-14.22L331.7 65.05h14.49l11-44h.93l12.36 40.14c.93 3 2.32 3.91 5.76 3.91h12.27L404.64 0zm31.02 37.36h26.2l2.79-11.43h-26.21l3.53-13.94h33.64L464.1 0h-48.79l-16.17 65.05h48.79l2.97-11.99h-33.64l3.91-15.7zm83.06-10.23l-19.43-2c-2.78-.37-3.81-.46-4.27-1.11s-.46-2.14.37-5.39c.93-3.53 1.58-5.49 2.42-6.14.65-.56 1.76-.74 4.18-.74h12.82c2.61 0 3.35.37 3.72.93s.47 2-.84 7.9h14.31c2.7-11.43 2.42-15 .47-17.75C516.4.74 513.33 0 507.76 0h-22.49c-4.93 0-8.27 1.12-10.69 3.07-3.71 3-6.41 7.62-8.45 15.89-2.23 8.82-1.95 12.26-.1 14.86 1.58 2 4 3 8.37 3.44l19.32 2.05c2.51.18 3.82.55 4.28 1.11.56.84.46 2.23-.37 5.49-1 3.9-1.77 5.85-2.6 6.5s-2 .84-4.74.84h-13.85c-2.69 0-3.53-.28-4-.84s-.37-2.14 1-8.55h-14.28c-2.79 11.61-2.79 15.61-.75 18.31 1.68 2.14 4.74 2.88 10.23 2.88H493c5.2 0 8.37-1.12 10.87-3.07 3.72-3 6.23-7.62 8.46-16.54s2.05-12.45.09-15c-1.5-1.91-3.83-2.84-8.19-3.31zm73.39-6.59c2.69-11.43 2.41-15 .46-17.75C576.5.74 573.44 0 567.86 0h-22.49c-4.92 0-8.27 1.12-10.68 3.07C531 6 528.27 10.69 526.23 19c-2.23 8.82-2 12.26-.09 14.86 1.58 2 4 3 8.36 3.44l19.33 2.05c2.51.18 3.81.55 4.27 1.11.56.84.47 2.23-.37 5.49-1 3.9-1.76 5.85-2.6 6.5s-2 .84-4.74.84h-13.85c-2.69 0-3.53-.28-4-.84s-.37-2.14 1-8.55h-14.28c-2.79 11.61-2.79 15.61-.74 18.31 1.67 2.14 4.74 2.88 10.22 2.88h24.35c5.2 0 8.36-1.12 10.87-3.07 3.71-3 6.22-7.62 8.45-16.54s2.05-12.45.1-15c-1.49-1.95-3.81-2.88-8.18-3.35l-19.42-2c-2.79-.37-3.81-.46-4.28-1.11s-.46-2.14.37-5.39c.93-3.53 1.58-5.49 2.42-6.14.65-.56 1.77-.74 4.18-.74h12.83c2.6 0 3.34.37 3.71.93s.47 2-.83 7.9zm9.21-8.85c-1.67 0-2.11-.38-2.52-.91s-.7-1.73.09-4.95 1.6-4.31 2.37-4.92a4 4 0 0 1 3-.91h2.9c1.7 0 2.13.35 2.54.91s.68 1.73-.11 4.92-1.61 4.33-2.34 4.95a4.14 4.14 0 0 1-3 .91zm3-1a3.17 3.17 0 0 0 2.29-.58c.59-.5 1.14-1.41 1.85-4.28s.61-3.78.26-4.25-.67-.61-2-.61h-2.61a3.11 3.11 0 0 0-2.28.61c-.62.47-1.18 1.41-1.88 4.25s-.62 3.78-.23 4.28.7.58 2 .58zm.62-4c-.09-.09-.23-.12-.62-.12h-1.25L588 8.9h-1.55L588 2.58h3.78c.53 0 .82.08 1 .29s.27.67 0 1.52c-.26 1.15-.64 1.5-1.43 1.58V6c.61.15.88.3.7 1.26-.14.74-.29 1.29-.32 1.64h-1.58a6.34 6.34 0 0 1 .26-1.52c.14-.5.11-.61.05-.7zm.79-2.78c-.09-.09-.18-.09-.44-.09h-1.52l-.38 1.61h1.52a.68.68 0 0 0 .44-.09 1.37 1.37 0 0 0 .35-.73c.13-.48.07-.61.04-.71zM195.81 87.67c-.59 2.34-1.25 3.33-2.19 4.07a4.71 4.71 0 0 1-3.08.91H179l.79-3.2h2.13L184.79 78h-2.13l.79-3.18H195c1.37 0 2.16.23 2.62.84.53.76.61 1.83.1 3.81-.64 2.57-1.76 3.49-3.56 4 1.75.46 2.36 1.37 1.65 4.2zm-9.95 1.85h4c.59 0 .84 0 1-.22s.44-.49.82-2 .38-1.93.2-2.14-.3-.2-.91-.2h-4zm5.78-7.45c.56 0 .78 0 1-.18s.46-.63.79-1.9.28-1.61.12-1.81-.28-.2-.89-.2h-3.91l-1 4.09zm9.08-4.07l.79-3.18h14.9l-1.47 5.92h-3.56l.68-2.77h-5.24l-1 4h4.25l-.77 3h-4.24l-1.06 4.5h5.37l.76-3.1h3.56l-1.55 6.28h-15l.79-3.2H200L202.85 78zm27.04 11.45l-.79 3.2h-8.55l.79-3.2h2.29L224.35 78h-2.9l-.84 3.38h-3.36l1.63-6.51h16.48l-1.63 6.51h-3.35l.84-3.38h-2.9l-2.85 11.47zm18.39 0l-.79 3.2h-8.55l.79-3.2h2.29L242.74 78h-2.9l-.84 3.36h-3.36l1.63-6.51h16.48l-1.62 6.51h-3.36l.84-3.38h-2.9l-2.85 11.47zM255 78l.79-3.18h14.9l-1.47 5.92h-3.57l.69-2.77h-5.24l-1 4h4.25l-.77 3h-4.24l-1.1 4.45h5.37l.76-3.1H268l-1.55 6.28h-15l.79-3.2h2.13l2.79-11.4zm29.74 11.42h1.88l-.79 3.23h-3.66c-1.07 0-1.43-.17-1.66-.48s-.33-1 .39-4.3c.3-1.37.28-1.75.07-2.06s-.58-.41-1.47-.41h-2.8l-1 4h2.19l-.79 3.2h-8.29l.79-3.2h2.13l2.83-11.4h-2.13l.78-3.18h11.48c1.34 0 2.18.23 2.64.84s.61 1.65 0 4.09c-.79 3.16-1.75 3.84-3.89 4.2 1.73.38 2.27 1 1.71 3.61-.15.62-.31 1.33-.41 1.86zm-3.72-7c.74 0 1-.05 1.2-.21s.46-.61.79-2 .38-1.78.2-2-.36-.2-1.09-.2h-3.59l-1.09 4.43zm27.43-1.72c.38-1.78.4-2.16.27-2.37s-.3-.2-1.06-.2h-3.41c-.79 0-1 .05-1.22.2s-.59 1-1.68 5.42-1.2 5.19-1 5.42.31.23 1.09.23H305c.71 0 1-.05 1.22-.23a7.41 7.41 0 0 0 1-2.65l.12-.51h-3.56l.74-3H312l-.61 2.41c-1 4.1-1.72 5.42-2.84 6.31a4.72 4.72 0 0 1-3.26.89h-5.93c-1.68 0-2.31-.23-2.77-.84-.74-1-.79-2.62.59-8.06s2.23-7.12 3.43-8.06a4.41 4.41 0 0 1 3.18-.84h5.88c1.57 0 2.44.25 2.82.79.68.86.68 1.85-.05 5.06zM317 78h-1.78l.79-3.18h8.16l-.82 3.18h-1.83l1.6 4.37h.16l4-4.37h-1.85l.78-3.13H334l-.8 3.13h-1.81l-7.12 7.45-1 4h2.26l-.79 3.2h-8.5l.79-3.2h2.27l1-3.89zm23.24.61l-2.69 10.84h1.6l-.79 3.2H331l.79-3.2h2.14L336.76 78h-2.14l.79-3.18h8.29c.74 0 .94.18.92.94l-.28 11.32h.3L350 75.79a1.24 1.24 0 0 1 1.38-.94h8.16l-.81 3.15h-2.13l-2.85 11.42h2.13l-.78 3.2h-7.69l.79-3.2h1.58l2.7-10.84h-.36l-6.56 13.13c-.36.74-.59.91-1.27.91h-2.83c-.66 0-.86-.17-.86-.91v-13.1zm22.11 10l-1 4h-3.95l1-4zm25-.94c-.58 2.34-1.24 3.33-2.19 4.07a4.68 4.68 0 0 1-3.07.91h-11.53l.79-3.2h2.14L376.34 78h-2.14l.79-3.18h11.52c1.38 0 2.16.23 2.62.84.54.76.61 1.83.1 3.81-.63 2.57-1.75 3.49-3.56 4 1.78.46 2.39 1.37 1.68 4.2zm-9.94 1.85h4c.58 0 .83 0 1-.22s.43-.49.81-2 .38-1.93.21-2.14-.31-.2-.92-.2h-4zm5.77-7.45c.56 0 .79 0 1-.18s.46-.63.79-1.9.28-1.61.13-1.81-.28-.2-.89-.2h-3.92l-1 4.09zm9.08-4.07l.79-3.18H408l-1.48 5.92h-3.56l.69-2.77h-5.24l-1 4h4.25l-.76 3h-4.25l-1.09 4.45h5.36l.77-3.1h3.56l-1.55 6.28h-15l.79-3.2h2.14L394.4 78zm27.04 11.45l-.79 3.2H410l.78-3.2H413L415.89 78H413l-.84 3.38h-3.36l1.62-6.51h16.49l-1.63 6.51h-3.36l.84-3.38h-2.9L417 89.45zm18.39 0l-.79 3.2h-8.54l.79-3.2h2.29L434.28 78h-2.9l-.84 3.38h-3.35l1.63-6.51h16.48l-1.63 6.51h-3.36l.84-3.38h-2.9l-2.85 11.45zM446.57 78l.79-3.18h14.9l-1.47 5.92h-3.56l.68-2.77h-5.24l-1 4h4.25l-.76 3h-4.25l-1.09 4.45h5.36l.77-3.1h3.56L458 92.65h-15l.79-3.2h2.14L448.71 78zm29.71 11.42h1.88l-.79 3.23h-3.66c-1.07 0-1.42-.17-1.65-.48s-.33-1 .38-4.3c.3-1.37.28-1.75.08-2.06s-.59-.41-1.48-.41h-2.8l-1 4h2.19l-.79 3.2h-8.29l.79-3.2h2.14l2.83-11.4H464l.79-3.18h11.47c1.35 0 2.19.23 2.64.84s.62 1.65 0 4.09c-.78 3.16-1.75 3.84-3.89 4.2 1.73.38 2.26 1 1.7 3.61-.2.62-.33 1.33-.43 1.86zm-3.71-7c.73 0 1-.05 1.19-.21s.46-.61.79-2 .38-1.78.2-2-.35-.2-1.09-.2h-3.59L469 82.43zm29.12 2.73a4.51 4.51 0 0 1-3.08.81h-5l-.87 3.49h2.29l-.79 3.2h-8.39l.79-3.2h2.14L491.64 78h-2.13l.79-3.18h11.09c1.37 0 2.21.18 2.67.81s.73 1.65 0 4.71-1.4 4.05-2.37 4.81zm-3.91-2.26a2 2 0 0 0 1.19-.21c.31-.25.46-.61.86-2.24s.44-2 .26-2.24-.36-.2-1.09-.2h-3.39l-1.22 4.89zm21.29 6.53H521l-.79 3.23h-3.71c-1.07 0-1.43-.17-1.66-.48s-.33-1 .39-4.3c.3-1.37.27-1.75.07-2.06s-.58-.41-1.47-.41H511l-1 4h2.19l-.79 3.2h-8.29l.79-3.2h2.1l2.89-11.4h-2.14l.79-3.18H519c1.34 0 2.18.23 2.64.84s.61 1.65 0 4.09c-.79 3.16-1.75 3.84-3.89 4.2 1.73.38 2.27 1 1.71 3.61-.17.62-.29 1.33-.39 1.86zm-3.72-7c.74 0 1-.05 1.2-.21s.46-.61.79-2 .38-1.78.2-2-.36-.2-1.09-.2h-3.59l-1.09 4.43zM531 89.45l-.79 3.2h-8.42l.79-3.2h2.24L527.69 78h-2.24l.79-3.18h8.42l-.79 3.18h-2.21l-2.85 11.42zm6.38 3.2c-1.68 0-2.31-.23-2.77-.84-.74-1-.79-2.62.58-8.06s2.24-7.12 3.44-8.06a4.41 4.41 0 0 1 3.18-.84h5.85c1.58 0 2.41.2 2.85.76.66.89.56 2.32-.23 5.67h-3.95c.49-2.18.56-2.72.41-2.92s-.33-.21-1-.21h-3.38c-.79 0-1 0-1.22.21s-.56.86-1.68 5.39-1.17 5.16-1 5.37.33.23 1.12.23h3.38c.74 0 1-.08 1.15-.23s.4-.61 1.11-3.11h4c-.94 3.49-1.53 4.94-2.67 5.83a4.71 4.71 0 0 1-3.23.81zM553.66 78l.79-3.18h14.91l-1.48 5.92h-3.56L565 78h-5.24l-1 4H563l-.76 3H558l-1.09 4.45h5.37l.76-3.1h3.56l-1.55 6.28H550l.78-3.2H553L555.8 78zm18.93 10.61l-1 4h-3.94l1-4z" fill="black"/></svg>
